/* XPM */
static char *_a29f55037c7418893f911795576e6dcG2Sa7tVFdd4pBR1h[] = {
/* columns rows colors chars-per-pixel */
"64 64 119 2 ",
"   c #000000",
".  c #0A0000",
"X  c #120000",
"o  c #1B0000",
"O  c #210000",
"+  c #6E430C",
"@  c #754200",
"#  c #7A4200",
"$  c #704308",
"%  c #674517",
"&  c #6C4412",
"*  c #64461D",
"=  c #5F4726",
"-  c #5C472C",
";  c #554837",
":  c #7E7871",
">  c #797979",
",  c #824300",
"<  c #BB730F",
"1  c #B67415",
"2  c #BB7311",
"3  c #B2741E",
"4  c #B87318",
"5  c #8B7F37",
"6  c #8B7F39",
"7  c #9E7337",
"8  c #9C733C",
"9  c #9C7A3D",
"0  c #AF7524",
"q  c #A4722B",
"w  c #A8762F",
"e  c #B17421",
"r  c #A57533",
"t  c #A87632",
"y  c #A1773D",
"u  c #A3783D",
"i  c #C37101",
"p  c #C07108",
"a  c #957447",
"s  c #9C7645",
"d  c #9D7844",
"f  c #94744A",
"g  c #99784E",
"h  c #8E7555",
"j  c #8A765C",
"k  c #967954",
"l  c #927A5B",
"z  c #A17842",
"x  c #847765",
"c  c #887660",
"v  c #81776D",
"b  c #817869",
"n  c #958013",
"m  c #8F8120",
"M  c #F0A12B",
"N  c #EBA231",
"B  c #E6A33B",
"V  c #BF9D6F",
"C  c #BD9D74",
"Z  c #B69F7E",
"A  c #B99E7B",
"S  c #D6A65B",
"D  c #E4A241",
"F  c #C49C68",
"G  c #CDA769",
"H  c #D1A662",
"J  c #C3A879",
"K  c #C3A87B",
"L  c #C3A87D",
"P  c #E1CC5F",
"I  c #AF9F8E",
"U  c #B69F80",
"Y  c #B49F82",
"T  c #B39F84",
"R  c #B19F87",
"E  c #B39F86",
"W  c #B49F84",
"Q  c #B39F85",
"!  c #B09F8B",
"~  c #B09F8B",
"^  c #A89F96",
"/  c #AFA08B",
"(  c #ACA18D",
")  c #AFA08D",
"_  c #ADA08F",
"`  c #ACA18F",
"'  c #AEA08D",
"]  c #B5A083",
"[  c #B2A185",
"{  c #B1A086",
"}  c #B0A087",
"|  c #B6A084",
" . c #B0A089",
".. c #B0A089",
"X. c #A6A390",
"o. c #AAA192",
"O. c #ABA293",
"+. c #ACA090",
"@. c #ADA191",
"#. c #ACA092",
"$. c #AAA094",
"%. c #ABA195",
"&. c #A9A196",
"*. c #A9A097",
"=. c #ABA093",
"-. c #A6A19B",
";. c #A5A29D",
":. c #A8A199",
">. c #A3A1A2",
",. c #A1A3A2",
"<. c #A2A2A2",
"1. c gray64",
"2. c #A4A2A3",
"3. c #A2A2A4",
"4. c #A2A2A2",
"5. c #C1A880",
"6. c #D5CB86",
"7. c #ECEBE7",
"8. c #EBEBEB",
/* pixels */
"                                                                                                                                ",
"                                                                                                                                ",
"                                                                                                                                ",
"                                                                                                                                ",
"                                                                                                                                ",
"                                                                                                                                ",
"                                                                                                                                ",
"                                              . ! R _ _ R / -.  *._ R R _ #._ .                                                 ",
"                                            #.A t w 8 d w u /   Z d w w 8 s y F Z .                                             ",
"                                      .  .] h d 4 2 q w 2 3 W . C w 2 2 q r e 0 d Z { .                                         ",
"                                    . A t 0 7 r 2 2 q w 2 3 W . C t 2 2 q t 4 4 r 8 u V .                                       ",
"                                  . A r 2 2 q w 2 2 r u 3 w R . C t 2 2 q w 2 2 w 7 w u {                                       ",
"                                   .t 2 p 2 q w 2 4 8 a 7 8 _ . C w 2 2 q w 2 2 w 7 u d l #.                                    ",
"                                  R e i i 2 q w 2 4 8 g u d _ . C w 2 2 q w 2 2 w 7 q 7 a {                                     ",
"                                  R e i i 2 q w 2 2 r u 3 w R . C w 2 2 q w 2 2 w q 3 3 u A                                     ",
"                                3.R e i i 2 q w 2 2 q w 2 3 W . C w 2 2 q w 2 2 w q 2 2 w C .                                   ",
"            . .     . .         <.j e i i 2 q w < < q w 2 3 W . C w 2 2 q w 2 2 w q 2 2 w C o.          . . . .                 ",
"          . X 5.X X L X         <.j e i i 2 q w < < q w 2 3 R . C w 2 2 q w 2 2 w q 2 2 w a o.        . J O O J .               ",
"            X G @ @ H o .       <.j e i i 2 q w 2 2 q t 2 3 R . C w 2 2 q w 2 2 w q 2 2 t a o.        . S , , S .               ",
"            X @ D B w o .       *.f 3 i i 2 q w 2 2 q t 2 e R . C w 2 2 q w 2 2 w q 2 2 t a R         . # N M 3 X               ",
"            X + 1 < w o .     *.l 7 4 i i 2 q w < < q t 2 e R . C w 2 2 q w 2 2 w q 2 2 w 8 s Z .     . @ < p 3 X               ",
"            X & 4 2 w o .     *.g q 2 i i 2 q w < < q w 2 e W . C w 2 2 q w 2 2 w q 2 2 w 7 y C .     . @ 2 p 3 X               ",
"            X & 4 2 w o .     o.g q 2 i i < q w 2 2 q w 2 e W . C w 2 2 q w 2 2 w q 2 2 w 7 z C .     . @ 2 p 3 X               ",
"            X & 4 2 w o .     o.g q 2 i i < q w 2 2 q w 2 3 W . C w 2 2 q w 2 2 w q 2 2 w 7 y C .     . @ 4 p 3 X               ",
"            X & 4 2 w o .     o.g q < i i 2 q w 2 2 q w 2 3 W . C w 2 2 q w 2 2 t q 2 2 w 7 d C .     . @ 2 p 3 X               ",
"            X & 4 2 w o .     o.g q < i i 2 q w 2 2 q w 2 3 W . C w 2 2 q w 2 2 t q 2 2 w 8 d C .     . @ 2 p 3 X               ",
"            X & 4 2 w o .     #.g q 2 i i 2 q w 2 2 q w 2 3 W . C w 2 2 q w 2 2 w q 2 2 w 7 z C .     . @ 2 p 3 X               ",
"            X & 4 2 w o .     #.g q 2 i i 2 q w 2 2 q w 2 3 W . C w 2 2 q w 2 2 w q 2 2 w 7 z C .     . @ 2 p 3 X               ",
"            X & 4 2 w o .     o.g q 2 i i 2 q w 2 2 q w 2 3 W . C t 2 2 q w 2 2 w q 2 2 w 7 y C .     . @ 2 p 3 X               ",
"            X & 4 2 w o .     o.g q 2 i i 2 q w 2 2 r u 4 0 R . C r 3 3 r w 2 2 w q 2 2 w 7 y C .     . @ 2 p 3 X               ",
"            X & 4 2 w o .     o.g q 2 i i 2 q w 2 4 8 s 0 t  .. C u r r 7 w 2 2 w q 2 2 w 7 y C .     . @ 2 p 3 X               ",
"            X & 4 2 w o .     o.g q 2 i i 2 q w 2 1 8 X O 9 _   Z s o O 7 w 2 2 w q 2 2 w 7 y C .     . @ 2 p 3 X               ",
"            X & 4 2 w o .     o.g q 2 i i 2 q w 2 1 o 6.5 . X.  *.. m P O w 2 2 w q 2 2 w 7 y C .     . @ 2 p 3 X               ",
"            . % 3 4 u X       o.g q 2 i i 2 q w 2 1 o 6 6 . X.  ^ . m n O w 2 2 w q 2 2 w 7 y C .     . $ 3 4 0 .               ",
"            . * 0 0 % .       o.g q 2 i i 2 q w 2 1 8 o O 9 _   Y s O O 7 w 2 2 w q 2 2 w 8 y C .     . & w w + .               ",
"              X # # X .       o.g q 2 i i 2 q w 2 1 8 s 0 t  .. C u t t 7 w 2 2 w q 2 2 w 8 y C .     . o + $ o .               ",
"              X @ t X         o.g q 2 i i 2 q w 2 2 r r 4 0 R . C t 3 3 q w 2 2 w q 2 2 t 7 y C .       X % z o .               ",
"              . @ t .         o.g q 2 i i 2 q w 2 2 q w 2 3 W . C w < < q w 2 2 t q 2 2 t 8 y C .       X * s o .               ",
"              . @ t .         *.g q 2 i i 2 q w 2 2 q w 2 3 W . C w 2 < q w 2 2 t q 2 2 w 7 y C .       X * s o .               ",
"              . @ t .         *.g q 2 i i 2 q w 2 2 q w 2 3 W . C w 2 2 q w 2 2 w q 2 2 w 7 y C .       X * s o .               ",
"              . @ t .         *.g q 2 i i 2 q w 2 2 q w 2 3 W . C w 2 2 q t 2 2 w q 2 2 t 8 y C .       X * s o .               ",
"              . @ t .         *.g q 2 i i 2 q w 2 2 q w 2 3 W . C w 2 2 q t 2 2 w q 2 2 t 8 y C .       X * s o .               ",
"              . @ t .         o.g q 2 i i 2 q w 2 2 q w 2 3 W . C w 2 2 q w 2 2 w q 2 2 w 8 y C .       X * s o .               ",
"              . @ t .         o.g q 2 i i 2 q w 2 2 q w 2 3 Y . C w 2 2 r u 3 3 u r 2 2 w 8 y C . >     X * d o .               ",
"              . @ t .   <.<.  o.g q 2 i i 2 q w 2 2 q w 2 3 Y . C w 2 1 8 a 7 7 a 8 1 2 w 7 y C . >     X * d o .               ",
"              . @ t .   <.<.  o.g q 3 2 2 3 q w 2 2 q w 2 3 Y . C w 2 1 8 s u u s 8 1 2 w 7 y C . > >   X * d o .               ",
"              . @ t . <.<.<.  o.g 7 q q q q 7 w 2 2 q w 2 e W . C w 2 2 r u 3 3 u r 4 2 t 7 y C . > > : X * d o .               ",
"              . @ t  .<.<.<.  *.k 7 r w w t 7 w 2 2 q t 2 e R . C t 2 < q w 2 2 w q 2 2 t 7 y C . > > : R * s o .               ",
"              . @ t  .<.<.2.  *.k r 3 2 2 3 q w < < q t 4 0 {   A r 2 < q w < < w q 2 2 w 7 y C . > > : R * s o .               ",
"               .@ t  .<.<.>   *.- s 0 4 4 0 7 y e 0 7 y 0 $ _   Y & e 0 7 u 0 0 y 7 0 0 y a s A . > > :.R * d a .               ",
"            <. .@ t  .> > >   : ; h % & + % h = % % h = % * v   x = % % h = % % = h % % = j - x   > 3.:.R * d a b               ",
"            :.] @ w h : > >     v x c j j c x x c c x x c x :   v x c c x x c c x x c c x v v     <.3.*.A & u s _               ",
"            R % # 0 % j : > 7.7.                                                              7.7.<.<.#.& # e @  .3.<.          ",
"        <.:.[ g $ u g j : <.<.<.7.7.7.7.8.7.7.7.8.7.7.7.8.7.7.7.7.7.7.8.7.7.8.7.7.7.7.7.7.7.8.<.<.<.<.#.g @ w y I 3.<.          ",
"        <.<.:.o._ I #.:.;.<.<.<.<.<.<.<.<.<.<.1.<.<.<.<.<.<.<.<.<.<.<.<.<.<.<.<.<.<.<.<.<.<.<.<.<.<.<.;.#.! R _ -.<.<.          ",
"          3.<.<.<.<.<.<.<.<.<.<.<.<.<.<.<.<.<.<.<.<.<.<.<.<.<.<.<.<.<.<.<.<.<.<.<.<.<.<.<.<.<.<.<.<.<.<.<.<.<.<.<.<.            ",
"                                                                                                                                ",
"                                                                                                                                ",
"                                                                                                                                ",
"                                                                                                                                ",
"                                                                                                                                ",
"                                                                                                                                ",
"                                                                                                                                ",
"                                                                                                                                "
};
