/* XPM */
static char *xpm_[] = {
/* columns rows colors chars-per-pixel */
"64 64 156 2 ",
"   c #3B2A04",
".  c #412F03",
"X  c #463105",
"o  c #543D05",
"O  c #583D06",
"+  c #5D4406",
"@  c #654706",
"#  c #674907",
"$  c #684907",
"%  c #6A4709",
"&  c #6A4C09",
"*  c #724E06",
"=  c #724F0A",
"-  c #6F5107",
";  c #745207",
":  c #7A5407",
">  c #7D5A07",
",  c #755309",
"<  c #7B5409",
"1  c #7E590A",
"2  c #835D05",
"3  c #8A5E07",
"4  c #815708",
"5  c #845C08",
"6  c #8B5E09",
"7  c #876205",
"8  c #8C6306",
"9  c #8F6C03",
"0  c #8B6309",
"q  c #926407",
"w  c #9C6607",
"e  c #956B06",
"r  c #9B6C06",
"t  c #936509",
"y  c #996609",
"u  c #946809",
"i  c #9A6C09",
"p  c #9C7105",
"a  c #9C7109",
"s  c #A16F07",
"d  c #A16F0C",
"f  c #A47305",
"g  c #A97603",
"h  c #A77D03",
"j  c #AD7C04",
"k  c #A37209",
"l  c #AA7209",
"z  c #AC7B09",
"x  c #B07707",
"c  c #B37D06",
"v  c #B97D07",
"b  c #B07709",
"n  c #B47C0A",
"m  c #BB7D0A",
"M  c #BE7C10",
"N  c #C27E06",
"B  c #AD8205",
"V  c #B48205",
"C  c #BB8306",
"Z  c #BD8904",
"A  c #BB8309",
"S  c #C28507",
"D  c #C48A05",
"F  c #C98C06",
"G  c #C38608",
"H  c #CE830F",
"J  c #C58A08",
"K  c #CB8B09",
"L  c #D48E06",
"P  c #D28E08",
"I  c #C59104",
"U  c #CD9205",
"Y  c #CE9E06",
"T  c #D39305",
"R  c #DA9505",
"E  c #D49B05",
"W  c #DC9B06",
"Q  c #D79308",
"!  c #D99409",
"~  c #E78B08",
"^  c #E49705",
"/  c #E29B06",
"(  c #EF9E03",
")  c #E19908",
"_  c #E99E08",
"`  c #CBA107",
"'  c #DEA406",
"]  c #D1A903",
"[  c #D6B704",
"{  c #DCB405",
"}  c #D3BC04",
"|  c #DBBC05",
" . c #E3A205",
".. c #EBA405",
"X. c #E4AA04",
"o. c #EBAA05",
"O. c #E6A30D",
"+. c #F3A506",
"@. c #F5AB06",
"#. c #FAAC06",
"$. c #E6B505",
"%. c #EBB305",
"&. c #E5BE04",
"*. c #ECBC05",
"=. c #F2B205",
"-. c #F9B305",
";. c #F4BC05",
":. c #FCBD05",
">. c #D1C603",
",. c #D9C703",
"<. c #D5CB04",
"1. c #DFCB06",
"2. c #DDD404",
"3. c #DCD903",
"4. c #E5C303",
"5. c #ECC304",
"6. c #E4CB05",
"7. c #EBCB04",
"8. c #F5C305",
"9. c #FCC305",
"0. c #F3CB05",
"q. c #FDCA04",
"w. c #E4D305",
"e. c #EBD605",
"r. c #E4DB05",
"t. c #EDDB05",
"y. c #F3D204",
"u. c #FCD304",
"i. c #F2DB04",
"p. c #FEDC04",
"a. c #E7E202",
"s. c #ECE404",
"d. c #EEEA04",
"f. c #F3E504",
"g. c #FCE305",
"h. c #F2ED03",
"j. c #FDEC03",
"k. c #F5F302",
"l. c #F6F501",
"z. c #F4F004",
"x. c #F4F204",
"c. c #FAF702",
"v. c #FAF106",
"b. c #F9F704",
"n. c #FAF704",
"m. c #FBFB00",
"M. c #F8F802",
"N. c #FBF903",
"B. c #FCFB00",
"V. c #FFFB01",
"C. c #FCFB02",
"Z. c yellow",
"A. c #FBFA04",
"S. c #FBFB04",
"D. c #FBF806",
"F. c #FFFE04",
/* pixels */
"Z.Z.Z.Z.Z.Z.Z.F.Z.F.F.F.F.F.U 9.p.W #.+.A C 2 o l y a <   6 = H N 4 t = M z H H 4 A _ e R D  .p.p.o.Z.Z.q.Z.F.F.Z.Z.Z.Z.Z.Z.Z.Z.",
"Z.Z.Z.Z.Z.Z.B.Z.Z.m.n.m.A.u.U v.m.E #.#.V F 7 + z m 0 $ X < & % = 4 = , n t u 0 @ c W 2 P L R -.-.E A.A.j.p.Z.B.A.Z.m.Z.Z.Z.m.Z.",
"Z.Z.Z.B.Z.B.B.m.A.A.j.m.n.n.@.j.u.D =.+.C T P a  .n 4 1 = y % 5 d t d = 1 + = 5 @ z Z 3 R +...9.=.X.n.n.B.B.m.m.m.Z.Z.m.B.Z.Z.Z.",
"Z.Z.Z.B.B.m.m.m.k.l.m.y.x.l.Z s.7.m N J u F G t n : & 0 < < @ , & O & % 5 1 1 a a K A 7 R $.W e.;.0.h.x.f.l.x.m.A.m.m.m.Z.B.Z.Z.",
"Z.m.Z.m.B.m.c.c.c.c.c.n.h.h.I 0.t.D T _ J L K q t , > d i 0 l l u $ = : t 0 0 k z J r 2 _ *.U f.t.8.k.l.x.l.m.c.c.c.c.m.m.B.Z.Z.",
"Z.Z.B.m.m.B.l.c.c.l.y.f.h.h.h ..*.v T ' C K A 7 q 4 t t 5 , i y 0 4 t , 5 t y t u A w 7  .W V o.%.R d.d.h.k.c.x.l.l.B.m.m.m.B.Z.",
"Z.Z.m.m.m.c.c.k.k.h.y.f.h.s.Z X.w.R F J 3 C m 8 q > w 6 : > 3 G n A z ; , 0 4 u e J j 8 E G e X.y.V 5.d.s.h.k.h.h.c.l.c.m.Z.F.Z.",
"Z.m.A.m.c.x.k.l.h.h.v.h.s.s.U *.i.D J / p S K v 5 i i f t 5 e ! n w ~ n k i e u k Q v v ! o.P s.f.r 5.d.0.h.h.d.c.z.l.m.l.c.Z.Z.",
"F.B.m.A.c.k.x.k.l.d.i.a.3.2.D ' 1.D U K 8 z f f u q i f 8 - 1 0 o X * 3 q 5 q G z v t p Y ) r | r.2 ' a.a.a.s.l.z.d.c.m.l.m.m.Z.",
"Z.F.n.Z.c.c.k.l.d.j.h.4.t.s.T 5.e.+.A D f V A C R S v v N k A A > e F S G z v P f v v f Q @.C 7.g...f.j.a.7.v.a.d.z.l.l.l.m.Z.F.",
"F.p.B.h.k.k.h.h.a.7.Z.*.7.j...6.w...+._ Z S A p A c z z v C W _ J U ! T ! P G J c c S Z E ..^ e.i.o.2.r.%.Z.h.e.k.y.y.l.x.j.n.F.",
"q.j.B.f.k.h.t.7.a.a.8.s.2.} V ' [ v U ' v c u f A 8 > e 8 7 7 0 f w Z u Z c 8 c e f A C V j T | <.{ >.} f.*.&.a.h.i.f.c.i.A.Z.F.",
"F.A.n.x.k.h.s.f.f.j.a.,.j.7.Z ;.-.U I W c W T Y / L / / E Q R W +.@.#.K / ' F ) D D / E R W *.e.7.C o.B.2.&.s.r.a.d.h.k.h.n.A.F.",
"Z.A.n.x.k.a.5.5. .f.r.2.*.v.V Z -.o.'  .k ..+.W %.Z ) *.o.+.W T :.#.;.E W T F K I A @.D J W R o.t 2 v.4.` j.f.3.f.f.h.h.x.c.u.Z.",
"o.D R ;.;.' V f 9 o.X.| I B 9.B E R T $.T  .C e T q j F ! ..W W R T C Z U A ! C J +...C R %. ...L q.f h j ..W I E Z p V Z @.U U ",
"g.:.:.5.f.=.e.t.r.p.p.>.e.B $.j.;.@.=.i.[ e.0.| r.^ %.f.e.q.:.p.p.A.0.7.e.$.w.i.6.t.w.{ =.9.F ( j.8 g 9.W 6.4.' %.X...0.s.f.v.9.",
"p.:.9.e.f.%.^ t.| 0.e.[ e.=.@.;.j.X.B 7.<.f.p.r.a.7.=.i.5.:.:.g.9.l.f.s.y...X.%.' &.7.W ;.g t j.( F 9.=.{ w.t.6.i.w.$.i.7.0.Z.p.",
"W W ..Q F c 8 U e A  .T $.R R ] B 9.B I | o...e f Z  .5.;.R F o.U T @.V v r Z E I W ..h j f q.L .. .%.R A ..+.D v E V U A C E R ",
"T W +.%.*./ G %. .+...f / ' o.-.Z V B.;.2.t.f. .5.5.s.j.k.A.A.F.Z.u.m.k.x.d.f.s.3.f.g.] 4.B.2 8 ..R W D D @.C U K F L R E ;.#.:.",
"W E Q R / W L / ` T R c W F T =.8.V 7.v.,.a.j.s.d.d.d.l.x.x.B.F.F.m.c.x.h.h.d.s.a.s.&.2.v.o.C 7.y.*.W R E / C J / F ' / U #.+.+.",
"8 2 7 8 e > 9 A f u v V ' F v [ X.V [ 2.s.8.a.a.7.t.h.h.f.m.j.q.F.A.m.i.l.f.i.h.a.&.*.f.} >.{ <.[ E v V V Z f e A 8 v Z i A w k ",
"_ ) C v z z c A p A D A  .+...w.6...f.7.*.m.7.a.h.h.l.k.x.m.p.F.Z.F.j.x.B.y.0.k.e.d.B.$.3.w.o.f.w./ ..E S G v n G S K ! P Q U D ",
"A A s N v c S Q v A A f K C +.e.5.T f.r.4.h.j.d.k.k.n.n.m.B.m.F.Z.A.c.l.l.k.h.h.a.B.7.r.j.f...g.0.C +.R p v V f P C x G G F u 7 ",
"7 > * 8 k i q i f f z 7 K U D 6.' D 2.3.a.i.d.k.k.h.k.A.n.m.F.F.Z.Z.B.c.B.k.h.h.c.d.a.a.a.' 2 r.| p / Y r u v z J 0 2 8 3 :   o ",
"! i 5 t k i i 5 v K S f / J Z i.*.U s.d.h.j.h.z.m.x.x.m.m.B.n.Z.F.Z.n.m.m.l.x.c.d.k.h.y.s.5.r f.t.U ..W c m R k 0 i i f z ~ y x ",
"G 6 : , 6 r > q 3 v S 3 J F R w.X.Z s.d.f.y.h.z.h.m.b.m.m.A.Z.Z.Z.Z.m.m.n.k.c.h.d.k.h.t.d.5.V e. .e J E 8 j J e t 2 6 : , z G n ",
"y k , 7 t t 5 6 7 A P v ' T c *...h h.h.f.y.k.c.l.l.m.m.m.Z.m.Z.Z.B.m.m.m.m.l.l.k.c.x.x.d.s.R @.$.V /  .7 i v u q i t 5 : 0 1 t ",
"l l 0 e d < : t 8 F P D  .Q F i.0.I h.k.c.c.l.A.m.c.m.m.B.m.Z.Z.Z.Z.B.B.B.m.l.m.B.n.l.h.l.l.8.s.f.U *./ 3 r J z k 7 t t : , # 0 ",
", @ 1 < 6 = , z u G F u S N V 7.s.Z z.x.y.c.z.m.m.m.B.B.Z.B.Z.Z.Z.Z.m.Z.m.m.m.m.m.b.z.f.k.x.5.;.e.W $.W 3 Z K i d 1 < 5 % % o & ",
"5 @ y = 1 1 A O.a P Q A #.=.D y.f.#.n.A.m.j.m.A.B.m.B.B.Z.Z.Z.Z.Z.Z.Z.m.B.B.B.m.B.A.m.A.m.m.X.-.9...+.! 7 J z @ 5 = O 5 : d t d ",
"% % 4 X @ 5 M z + 7 F V #.#.R A.A.U u.A.m.m.F.Z.Z.B.Z.Z.Z.B.Z.Z.Z.m.Z.Z.Z.Z.Z.n.B.B.p.j.A.A.E -.-.R P P 2 R z % 0 t y n , = 1 = ",
"H = 6   < d w l o 2 C A ..#./ p.9.U Z.F.F.F.F.Z.F.Z.Z.Z.Z.Z.Z.Z.Z.Z.Z.Z.Z.F.Z.Z.F.Z.Z.q.F.F.o.p.p. .S R u _ A 4 P J z n = t 1 M ",
"M 5 t = n z G P 4 A ..e R S / p.p.o.F.F.q.F.F.Z.Z.F.Z.Z.Z.Z.Z.Z.Z.Z.Z.Z.Z.Z.Z.F.F.Z.F.Z.F.F.U 9.p.W #.+.A C 2 o l w a <   6 , H ",
"= < = , n y t 3 @ n R > T P W -.-.E A.A.j.p.Z.B.F.Z.B.Z.Z.Z.B.Z.Z.Z.Z.Z.Z.B.Z.Z.m.Z.F.A.A.u.U n.A.R #.#.V K 7 + z v 7 # X < % % ",
"d t d < 5 O * 3 @ z J 7 R +...9.-. .A.A.m.m.m.m.m.B.m.B.m.Z.Z.Z.Z.Z.m.B.Z.B.A.B.m.m.j.m.A.A.@.f.y.D =.@.C R K a O.n 4 4 = y % 6 ",
"& O % % 4 < > k r F A 7 ! %.W e.;.7.h.k.f.x.c.n.n.m.m.m.Z.m.Z.Z.Z.Z.Z.m.m.m.m.m.M.l.k.0.z.z.Z f.7.C N G u F J t n < & 0 , < % = ",
"u & = < t t 0 k z J f 2  .*.U f.t.8.k.k.x.k.c.B.c.l.B.m.m.B.Z.Z.Z.Z.Z.B.B.m.c.c.m.b.c.c.x.h.I 0.e.U Q _ D P J q t : < k i t l k ",
"0 1 0 , 2 u t t u v i 2 / / V %.=.R a.h.h.x.c.k.k.l.B.m.m.m.Z.Z.Z.Z.m.m.A.B.k.c.m.l.y.f.h.h.h  .*.n T ' C P C 3 q 4 t t 5 , d y ",
"n A z , : 0 2 t i S z 8 E G t X.y.V 7.d.s.h.l.d.h.m.l.c.m.m.Z.F.Z.m.m.B.B.c.c.k.x.h.y.f.h.s.Z X.w.E F J 2 C v 3 8 < i 6 , : 6 G ",
"n y ~ b k i e t f E v v R o.T a.f.p 5.s.y.h.h.d.A.h.k.m.A.B.B.Z.Z.B.m.m.c.k.k.l.h.x.j.h.d.f.U *.e.D J / f S P v 3 i i k t 5 i ! ",
"o   * 3 q 3 8 G z v u r ` ^ i | r.1  .a.a.a.d.k.h.h.l.m.l.m.Z.Z.F.A.B.A.c.l.h.k.j.d.i.a.3.2.D  .1.D U K 7 z f k i q u f 8 * > 7 ",
"7 u K S J x m T k v v p R @.v 0.g...f.j.a.7.B.a.d.x.l.l.l.m.F.Z.F.Z.m.c.l.c.l.x.h.k.h.4.r.f.T 5.t.+.A F f A A v Q S n v S d A C ",
"J U ! P ! K C J v c D D R ..W e.f.o.w.3.%.B.s.e.j.y.y.c.x.j.B.F.Z.g.A.x.l.k.h.h.a.7.B.*.7.f.o.6.w...+._ Z S C p S z j z v C ) _ ",
"k r A i Z v 8 V e f Z C V B E [ >.{ >.} f.*.&.a.h.t.f.c.i.B.A.F.q.j.m.f.k.x.t.7.a.a.*.f.2.[ V X.[ v I ' v c i f C 8 2 e 8 7 3 8 ",
"..#.#.U / ' G ) J S / E R / *.y.7.m o.B.<.*.a.r.a.h.h.x.z.n.A.F.F.B.c.x.h.h.s.d.s.v.t.,.v.7.V ;.=.T F W c R T ` ) L W  .E R E W ",
":.#.;.E W T F F I C @.D D E R ..8 2 B.4.] j.f.r.f.s.d.k.h.A.u.Z.F.A.c.x.h.d.5.5...f.r.2.=.B.V Z -.o.'  .f ..@./ %.S ) *.o...W T ",
"! E C A U C R C D +...Z R %. ...R q.f h h ..W I E Z p V C @.T U ..F R ;.;. .Z k e o.X.| U B 9.B E R R $.U  .A e U 8 z F ! ..W W ",
"p.n.0.7.i.$.6.i.6.e.w.{ =.9.F ( j.7 g 9.W 6.4.' *. ...0.s.f.v.9.g.:.:.5.t.%.7.s.r.p.i.<.e.B { j.;.=.=.e.[ t.0.| e.^ =.f.e.9.9.p.",
"9.v.f.s.y... .%.' 4.7.W 8.g 8 j.( F 9.=.$.w.t.1.i.6.$.t.7.0.A.p.p.:.q.e.f.=.^ r.| 0.e.} e.@.=.-.j.$.B 7.<.i.g.r.t.7.%.f.*.:.9.g.",
"U T @.A V p Z E I W o.j j f q.T .. .%.R V ..+.D C R C U Z A T W W W ..Q F j q P e C  .T %.E R ] B 9.B I | o...e k Z  .*.;.Q F ..",
"F.u.m.h.h.f.s.f.3.f.h.] 4.v.2 8 ..R E J D =.Z F F F T R E =.#.:.T ' +.o.*./ S %./ +...f  .' o.-.Z V A.;.w.r.f. .5.5.d.k.h.A.B.Z.",
"F.A.n.k.k.h.h.s.r.s.*.<.Z.o.C 7.e.*./ R E _ S J / J ' / U @.#.+.R Q Q E / W T W ` T R c W F P =.8.V 7.j.,.a.j.h.d.d.d.k.x.x.m.F.",
"Z.F.m.i.n.f.t.h.a.&.*.h.} >.| <.| T B V C Z f e V 8 v Z i C r f 8 2 7 0 e 2 8 C f i c V ' F V { ' V [ 2.s.5.a.a.0.t.h.h.f.A.j.q.",
"F.m.j.x.c.y.0.k.e.f.m.%.w.2.o.i.e.R ..! Z S c n G S P ! P T U D ..) C C z z z S p A S Z ..+...w.e.o.f.7.*.B.7.r.h.h.x.x.A.F.p.Z.",
"Z.A.m.l.c.k.h.h.a.v.7.a.j.f...p.0.v +.R i m v f P A x G G K u 2 C Z d v v n S ! v A v f J A +.t.5.T t.a.5.h.j.h.k.k.n.l.A.m.m.Z.",
"Z.F.m.x.B.k.h.x.l.d.a.a.a.' 2 r.,.p / E p u C z J 8 5 8 3 * . o 7 1 & q f i q i f f z 7 D U D 6.' D 2.3.a.i.h.h.k.h.l.n.m.B.A.Z.",
"Z.B.B.m.m.l.x.l.h.h.h.0.s.4.p f.t.U o.W n v ! k u t a k l ~ y z ! i 5 t k i i 6 v K S r ) J Z i.*.U d.s.h.l.h.h.B.x.k.m.m.B.B.Z.",
"F.Z.B.m.l.l.c.h.h.k.h.f.d.5.V e.X.e G E 7 z F u u 5 0 , ; n A n G 3 : : 5 i < 8 3 C S 3 D F R w.X.Z d.f.f.y.x.h.k.c.c.c.m.m.F.Z.",
"Z.Z.B.m.m.B.l.l.k.l.k.h.h.d.R @.%.v /  .6 r v u t u t 5 , t 1 0 y d , 5 t t 5 q 7 A K m ' T n *. .h f.k.f.y.c.c.c.m.B.m.m.B.Z.Z.",
"Z.Z.B.B.B.m.c.c.m.c.l.h.k.l.8.t.f.U *. .2 r J z k 0 t t < , & t l l 0 i d > : q q D R J ..T F t.0.I h.h.n.B.x.m.c.k.m.B.B.m.Z.Z.",
"Z.Z.Z.m.m.m.m.n.m.x.l.f.k.x.5.*.e.W $.R 7 A F i a > : 5 @ % o & , % < : 0 * , z q J F u J S m 7.f.Z n.k.y.k.l.c.A.B.m.m.B.B.Z.Z.",
"Z.B.B.Z.Z.B.A.m.F.m.m.m.m.n.X.-.9...+.R 7 G j @ 3 * O 5 < d t d 5 % y = 4 4 v O.a P R C +.=.C u.f.@.n.A.m.j.B.A.B.B.B.m.Z.Z.Z.Z.",
"Z.Z.Z.Z.Z.m.Z.F.B.B.p.j.A.A.E -.-.R P T 2 R z @ 0 t t n , = < = % % < X $ 6 m z + 7 F V #.#.R m.v.U u.A.F.A.m.Z.Z.B.Z.Z.m.Z.Z.Z.",
"Z.Z.Z.Z.Z.Z.Z.Z.Z.F.Z.q.F.F.o.p.p./ D R i _ C 4 P H z n = y 5 M H , 6   : i d k o 2 C A +.#.W p.9.U F.F.F.Z.F.F.Z.F.Z.Z.Z.Z.Z.Z."
};
