/* XPM */
static char *ff1af8b673234191e1e8aef8711284e72L2sDm02MjJhMchZ[] = {
/* columns rows colors chars-per-pixel */
"51 73 43 1 ",
"  c #000000",
". c #0D1A25",
"X c #0F1D27",
"o c #0F1F28",
"O c #102129",
"+ c #12272D",
"@ c #122C2F",
"# c #132D30",
"$ c #143032",
"% c #153434",
"& c #163936",
"* c #163B38",
"= c #183F39",
"- c #19433B",
"; c #19443C",
": c #1A483F",
"> c #1A5736",
", c #1A5E33",
"< c #1A5A35",
"1 c #1A672F",
"2 c #1A682E",
"3 c #196232",
"4 c #247932",
"5 c #2E8437",
"6 c #318737",
"7 c #368C39",
"8 c #3E953D",
"9 c #4AA244",
"0 c #52A846",
"q c #6EC359",
"w c #76CC6A",
"e c #76CF6E",
"r c #76D070",
"t c #7FDA8A",
"y c #8CE6A0",
"u c #90E8A1",
"i c #93EBA8",
"p c #94ECA8",
"a c #9DF3B4",
"s c #9FF4B9",
"d c #A0F6BB",
"f c #A3F7BF",
"g c #A5F9C1",
/* pixels */
"                                                   ",
"                                                   ",
"                                                   ",
"                                                   ",
"                                                   ",
"                                                   ",
"                                                   ",
"                      o                            ",
"                     ooo                           ",
"                      oo                           ",
"                      ooo    X                     ",
"           oo          oo                          ",
"           oo           o                          ",
"                    o                              ",
"                OO                                 ",
"                OO                                 ",
"                                                   ",
"                        .                          ",
"                      o...                         ",
"                      222            &&&           ",
"                     2222            &&&&          ",
"                +++  22222           &&&&          ",
"                +++o 2222             &&           ",
"                +++    2                           ",
"         ##      +                                 ",
"         ###                                       ",
"          #            o                           ",
"                   #%o   o                         ",
"                 OO%%%% .                          ",
"                 O%%%%%.O    @@                    ",
"                  ===%%OOo   @                     ",
"               + ====%OOOOO                        ",
"              +222====OOOOO                        ",
"              2222===OOOOOO                        ",
"              2222 =OOOOOOO                        ",
"             *2222 .OOOOOO                         ",
"            ****  .OOOOOOOO                        ",
"         <<<**** ..$$$OOOO33                       ",
"         <<<     ;$$$$::333333                     ",
"         <    ;;;;;OO:::3333333                    ",
"             ;;;;;<<6<::O3333333                   ",
"              ;;O-6666O:::==33   $$$               ",
"               o---666O333=o=o=   $$$              ",
"              ooO666663333332o=9 99$               ",
"              44444;;3333,3333999999               ",
"             444444433355555,399999999             ",
"           4444q0000555555555339999999             ",
"           44qwwwwwwwwww555555  9999999            ",
"           4qwwwww00eeeee555555799999999           ",
"       >> qqwwwww0eeeeeeeee555555 99999            ",
"       >>1qrw0000yeeeeeeeeeee55557 99999           ",
"      >>1rrrwyyyyyyyyyeeeeeeeee5577                ",
"     >>11rrwwyyyyyyyyyyyiieeeee5577                ",
"    >>>1rryyyyyyyyyyyyyyyiiiieee77                 ",
"     >>1rryyyyyeeeeyyyyyytttteee87                 ",
"      1rryyyyeeeeeefffffffftttte88oo               ",
"      1rryyyyeeeeeeffffffffftttee88o               ",
"       1yyyeeeeeffffffffffffttppp888o              ",
"       1yyyeeeffffffffffffffffsppp88o              ",
"      $yyyyeefffffffffddddfffffsssp88              ",
"      $yyyeeefffffffffdddddddffsssssss             ",
"     $$yyyeeefffffffffddddddddddssssss             ",
"     $$$yyeeeffffffffdddddddddddsssssss            ",
"     $$$yyeeefffffffdddddddddddddssssss            ",
"     $$$yyuffaaaadddddddddddddddddsssss            ",
"     $$$yyuufaaaadddddddddddddddddsssss            ",
"       $$uuufaaaaddddddddddddddddddssss            ",
"       $$uuuaaaaaddddddddddddddddddssss            ",
"         uuuaaaddddddddddddddddddddssss            ",
"          uaaaadddddddddddddddddddsssss            ",
"         &uaaaddddddddddddddddddddssss             ",
"         &ugggddddddddddddddddddddssss             ",
"         ggggggdddddddddddddddddddsss              "
};
