/* XPM */
static char *_1954ef1a0184e909be24fafe0a3bf2btaqxCruqpRxxhW8K[] = {
/* columns rows colors chars-per-pixel */
"49 80 35 1 ",
"  c #000000",
". c #0D1A25",
"X c #0F1D27",
"o c #0F1F28",
"O c #102129",
"+ c #12292E",
"@ c #132E31",
"# c #143333",
"$ c #153735",
"% c #163936",
"& c #163B38",
"* c #173D38",
"= c #19423C",
"- c #19443C",
"; c #1A483F",
": c #1A5637",
"> c #1A5836",
", c #1A5238",
"< c #1A662F",
"1 c #1F722F",
"2 c #1A6033",
"3 c #277C34",
"4 c #2D8235",
"5 c #42993F",
"6 c #469D41",
"7 c #6DC054",
"8 c #6EC256",
"9 c #72C761",
"0 c #7FDA8A",
"q c #86E194",
"w c #8EE7A2",
"e c #90E9A2",
"r c #95EDA8",
"t c #99F0AF",
"y c #9BF1B4",
/* pixels */
"           o                             o       ",
"                                                 ",
"                                                 ",
"                                                 ",
"                                                 ",
"                        o                        ",
"                                                 ",
"                                                 ",
"                                                 ",
"         o             O                         ",
"                      OOO                        ",
"                    oo OO                        ",
"            #       oo                           ",
"           ###                                   ",
"            ##                                   ",
"                                                 ",
"                                                 ",
"                                                 ",
"                                                 ",
"           @@                                    ",
"           @@                                    ",
"                                                 ",
"                                                 ",
"                                                 ",
"                         O        ..             ",
"                       XOOO   ........           ",
"                         OO............          ",
"                          .............          ",
"                  o      ++oo.........           ",
"                       +.++oo.........           ",
"                      +++.............           ",
"                   oo.===.............           ",
"                   oo.===...........             ",
"                    ..===..........              ",
"              %%%%% ...............              ",
"             ===%%% .o..,,,,%%..oo               ",
"             ====%% .;.,,,,,,%...                ",
"             ===%%%.;;;,,,,,,%..                 ",
"              =%%%%;;;;,,,,,,..                  ",
"                 ***;;;,,,,,,                    ",
"              >> ***;;;o,,,,.    --              ",
"            >>>>>****.ooooOO.   -----            ",
"            >>>>>> ;;oooooo.   ------            ",
"           >>>>>>> ;;;oooo&&   ------            ",
"           >>>>>>> .oooo&&&&&   -----            ",
"      ::::  >>>>>  ;;;;;$$$$$    ----            ",
"      :::::   o%%%%%;;44444$$$$$                 ",
"      :::::   %%%%%;444444444$$$111              ",
"      :::      %%%oo4444444444$$111              ",
"       :        ...o4444444444                   ",
"               ...ooo44444444@@                  ",
"              ..$$$555555<<< @@@::::             ",
"             ...555555555<<<<<@@::::::           ",
"            ...555555555555<<<22222::::          ",
"            ..5555555555888<<2222222::::         ",
"           ...55555588889999822222222:::         ",
"          ...555555888qqqqqq9999922222::         ",
"          ....55558qqqqqqqqqq999992222 :         ",
"         .....5388qqqqqqqqqqqqqq992222           ",
"        ....O33388qqqqqqqqqqqqqq99992999         ",
"        .   6333qqqqqqqqqqqqqqqq99999999         ",
"          88600qqqqqqqqqqqqqqqqqqqe9999999       ",
"         888000qqqqeeeeeqqqqqqqeeeeee99999       ",
"        8880000qeeeeeeeeqqqqqqqqeeeee999999      ",
"        88800eeeeeeeeeeeqqqqqqqqeeeeee99999      ",
"       888800eeeeeeeeeeeqqqqqqeeeeeeee99999      ",
"       88800yyeeeeeeeeeeqqqqqqqeeeeeeee9999      ",
"       8880yyyeeeeeeeeeeqqqqqqqeeeeeeeee9999     ",
"       8880yyyyeeeeeeeeeqqqqqqqeeeeeeeee9999     ",
"       O6yyyyyyeeeeeeeeqqqqqqqqeeeeeeeee9999     ",
"       O6yyyyyyeeeeeeewwwwqqqqqeeeeeeeee9999     ",
"       OOyyyyyyyyeewwwwwwwwwwrr11eeeeeee999      ",
"       OOyyyyyyyyeewwwwwwwwwwrr11eeeeeee99       ",
"        yyyyyyyyyeewwwwwwwwwwrr11eeeeeyyy        ",
"        yyyyyyywweewwwwwwwwwwrrww1eeeeyyy        ",
"         yyyyyywwwwwwwwwwwwwwwwww1eyytyyy        ",
"          yyyyyywwwwwwwwwwwwwwwwyyyyyyyyyy       ",
"          yyyyyywwwwwwwwwwwwwyyyyyyyyyttyy       ",
"          oyyyywwwwwwwwwwwwyyyyyyyyyyyttt        ",
"          oyyyywwwwwwwwwwwwyyyyyyyyyyyttt        "
};
