/* XPM */
static char *f332822fb87b4abeff296cf6c277d06fy3jasyrNPQyLY0mC[] = {
/* columns rows colors chars-per-pixel */
"51 80 35 1 ",
"  c #000000",
". c #0D1A25",
"X c #0F1D27",
"o c #0E1E27",
"O c #0F2028",
"+ c #10252B",
"@ c #12282D",
"# c #122A2F",
"$ c #143032",
"% c #153434",
"& c #163835",
"* c #163B38",
"= c #183F39",
"- c #18413B",
"; c #1A483F",
": c #1A4E3C",
"> c #1A5238",
", c #1A5438",
"< c #1A652F",
"1 c #1A682E",
"2 c #1A6D2D",
"3 c #277B33",
"4 c #2B8035",
"5 c #318737",
"6 c #499F42",
"7 c #52A846",
"8 c #6EC359",
"9 c #76D070",
"0 c #79D579",
"q c #90E8A1",
"w c #91E9A6",
"e c #9CF2B3",
"r c #9FF4B9",
"t c #A0F6BB",
"y c #A5F9C1",
/* pixels */
"                                                   ",
"                                                   ",
"                                                   ",
"                                                   ",
"                   OO                              ",
"              X    OO                              ",
"                                                   ",
"                  O                                ",
"         ##                                        ",
"         ##                                        ",
"                                                   ",
"                                                   ",
"                                                   ",
"                                                   ",
"                                                   ",
"         ##                                        ",
"         ##                                        ",
"                  X                                ",
"                                                   ",
"                    O                              ",
"                       OO                          ",
"                       OOO                         ",
"                        O                          ",
"                                                   ",
"                       ++OO  ...X.                 ",
"                       ++O .........               ",
"                     ++  ............              ",
"                  OO=== .............              ",
"                  O ===.............               ",
"              $$    === ............               ",
"             $$$$   .......X........               ",
"           ***$$$  ...O..%%.......                 ",
"           ***$$$  ....;;;;;.....                  ",
"           ***$$$ .---.;;;;;....                   ",
"                  ----.;;;;;..                     ",
"                &&----.;;;;;..                     ",
"          :::  &&&----X;;;;;.                      ",
"         ::::: &&&&..XXX++..   ====                ",
"        ::::::: &-&..XXX++.   =====                ",
"        ::::::: ---.XXXXX..   ======               ",
"        :::::::  --.XXXXXX.   ======               ",
"         :::::   ..XOXXX%%%   =====                ",
"    ::    :::    ..XXXX$$%%     ==                 ",
"   ::::           =XXX$$$$%                        ",
"  :::::    O    $$-----$$$                         ",
"  :::::       $$$$$--$>>>    11                    ",
"   ::::      $$$$$X2222222####11                   ",
"              ..XX222222222 ###                    ",
"             ...XX222222222                        ",
"              ..33333222222+                       ",
"            .333333333<<<<++++ ;;;;                ",
"           ..333333333,,,,<   ;;;;;;               ",
"           .3333333366666,,,,,,,;;;;;              ",
"          .33333333366666777,,,,,,;;;              ",
"         ...333333366677777777,,,,;;;;             ",
"         .....44466677777777777,,,,;               ",
"       .......<<<666999999777777,,,,7              ",
"        .  ..<<<6999999999977777,,77777            ",
"         775<<<<900099999999990000077777           ",
"        777<<0000000009999990000000777777          ",
"       7777800000000009999999000000077777          ",
"       7777w000000000099999990000000077777         ",
"      777wwww00000000099999990000000007777         ",
"     7777wwww00000000099999999000000007777         ",
"     77wwwwwww00tttttttttt99999900000077777        ",
"     O7wwwwwww0ttttttttttt9999990000007777         ",
"     OOwwwwww00ttttttttttt999999*000007777         ",
"     Owwwwwww00tttttttttttttt999**000w777          ",
"    Owwwwwwwttttttttttttttttteeee*000ww            ",
"     wwwwwwwttttttttttttttttteeeeeeeewww           ",
"     wwwwwwtttttttttttttttttteeeeeeeewww           ",
"     Owwwwwtttttttttttttttttttteeeeeeewww          ",
"     Owwwwwwttttttttttttttttttteeeeeeeqqw          ",
"     OOwwwtwttttttttttttttttttteeeeeeeeqw          ",
"      Owwwttttttttttttttttttttteeeeeeewww          ",
"       yyyytttttttttttttttttttteerreeewww          ",
"        yyytttttttttttttttttttrrrreeeewww          ",
"        yyytttttttttttttttttttrrrreeeeww           ",
"        yyyyytttttttttttttttttrrrreeeeq            ",
"        yyyyyttttttttttttttrrrrrrrreee             "
};
