/* XPM */
static char *_f3a67d4a5014419cb3f8402201d6aaazMulmLkBEbe8869n[] = {
/* columns rows colors chars-per-pixel */
"49 73 39 1 ",
"  c #000000",
". c #0D1A25",
"X c #0F1F28",
"o c #10222A",
"O c #11272D",
"+ c #11292E",
"@ c #132E31",
"# c #143333",
"$ c #153434",
"% c #163936",
"& c #173A37",
"* c #183E39",
"= c #19433B",
"- c #19443C",
"; c #1A4E3C",
": c #1A5238",
"> c #1A682E",
", c #1A6C2D",
"< c #1F722F",
"1 c #1A6033",
"2 c #1A6430",
"3 c #257A32",
"4 c #277C34",
"5 c #39903A",
"6 c #469D41",
"7 c #4AA043",
"8 c #52A846",
"9 c #67BA51",
"0 c #6DC054",
"q c #72C761",
"w c #7FDA8A",
"e c #84DF94",
"r c #86E194",
"t c #8EE7A2",
"y c #91E9A6",
"u c #97EEAD",
"i c #99F0AF",
"p c #9CF2B3",
"a c #9BF2B4",
/* pixels */
"                                                 ",
"                                                 ",
"                                 o               ",
"                        X                        ",
"                                                 ",
"                                                 ",
"                                                 ",
"                         X                       ",
"                                                 ",
"                                                 ",
"                                                 ",
"                       oo                        ",
"                      ooo                        ",
"                      ooo                        ",
"                        XXX                      ",
"             X          XXX                      ",
"            XXX         XXX                      ",
"             XX      XX . .                      ",
"                  +  X  .....                    ",
"                 +++    ....                     ",
"                  +     ....                     ",
"                        ...                      ",
"                         .                       ",
"                                        ***      ",
"                                       ****      ",
"                   @@   <              ****      ",
"                  @@@@ <<<<            ****      ",
"                  @@@@<<<<<                      ",
"             #     @@X <<<<.                     ",
"            ###        <<<XX                     ",
"            X##       #XX.XX                     ",
"                     &&&&o.                      ",
"                   ++&&&&&oXX                    ",
"                   +--&&&&oXX  $$                ",
"                 @ ----&&ooo   $$                ",
"                @@-----&ooo                      ",
"                 @333--oooo                      ",
"                 33333++oooo                     ",
"                =333o&&X+oXo                     ",
"           111 ===..&&&&::::                     ",
"           11====.&&&&&&:<<<<<<<                 ",
"               ;;;;;OOO::<<<<<<<                 ",
"               ;;;;;6666:<<<<<<<<  &&&           ",
"              ;;;;;::::66<<<<<<<<   &&&          ",
"                oOO::666,,,,<<<XX  9 &&&         ",
"                555556,,,,,,,,,<-999999&         ",
"              55555555,,,,,,,>,<<9999999         ",
"             55555555000777777>><99999999        ",
"             55555500000007777777999999999       ",
"            555wwwweeeqq000077777799999999       ",
"             5weeeeqqqqqqq0077777729999999       ",
"           44weeeeqqtttttttt7777777  999999      ",
"         224eeeqqqqtttaaaaaa77777777 999999      ",
"       2244weeqqqttttaaaaaaaaaa77777   9999      ",
"       2244weeqqqttaaaaaaaaaaaa77777o     9      ",
"       244weeeqtttaaaaaaaaaaaaaaa9778o           ",
"       444weqqqtuuaaaaaaaaaaaaaaa9999o           ",
"      2444requuuuuuuuuuuaaaayyaaaaa99oo          ",
"       444requuuuuuuuuuuaaaayyyyyaa999o          ",
"       44requuuuuuuuttttyyyyyyyyyya9999          ",
"       44ruuuuuuutttttttyyyyyyyyyyaa9999         ",
"       44ruuuuutttttttttyyyyyyyyyyya9999         ",
"       $44uuuuuttttttttyyyyyyyyyyyyy9999o        ",
"       $44uuuuuttttttttuuuyyyyyyyyyy9999o        ",
"       $$uuuuttttttttttuuuuuuyypppppy999o        ",
"       $$uuuuutttttttttuuuuuuyypppppy999o        ",
"       $$uuuuuttttttttttuuuuuyyppppyyyy          ",
"        $uuuuuttttttttttuuuuuyypppyyyyy*         ",
"         uuuuuttttttttttuuuuyyypppyyyyy          ",
"          uuuuttttttttttuuuuyyppyyyyyyy          ",
"           uuuttttttttttuuuuyippyyyyyyy          ",
"           uuiiittttttttiiiiiippyyyyyyy          ",
"           uuuiiiiitttttiiiiiiiyyyyyyy           "
};
