/* XPM */
static char *_8a24259f1b448f2a24dab1aeb8a1fc7JEORsnFZhR0ZXPue[] = {
/* columns rows colors chars-per-pixel */
"51 77 33 1 ",
"  c #000000",
". c #0D1A25",
"X c #101F29",
"o c #10252B",
"O c #12282D",
"+ c #122A2F",
"@ c #132D30",
"# c #143032",
"$ c #153535",
"% c #163936",
"& c #163B38",
"* c #19443C",
"= c #1A4F3B",
"- c #1A483F",
"; c #1A5836",
": c #1A5D34",
"> c #1A5438",
", c #1A662F",
"< c #1F722F",
"1 c #1A6132",
"2 c #3C943C",
"3 c #3E953D",
"4 c #4AA244",
"5 c #52A846",
"6 c #72C761",
"7 c #7FDA8A",
"8 c #83DE91",
"9 c #88E299",
"0 c #8BE49B",
"q c #9DF3B4",
"w c #A0F6BB",
"e c #A3F7BF",
"r c #A4F8C0",
/* pixels */
"                                                   ",
"                                                   ",
"                                                   ",
"                                                   ",
"                                                   ",
"                      XX                           ",
"                      X                            ",
"                                                   ",
"                                                   ",
"                                                   ",
"                    O          XX                  ",
"               ##  OOO         XX                  ",
"              ####  O                              ",
"              ####                                 ",
"               ###                                 ",
"                                                   ",
"          $$$                                      ",
"          $$$                                      ",
"          $$$                                      ",
"              X      X                             ",
"             XXX                                   ",
"     O        XX                                   ",
"    OOO                         OO                 ",
"     OO                       #OOOO                ",
"                           . ###OOO                ",
"                      ......#####OO                ",
"                    X........###                   ",
"             OO    XXX........#                    ",
"             OO    oX..X......                     ",
"                  @@@.XXX....                      ",
"                 XX@@@.X....                       ",
"                 XX@@@......                       ",
"                   @@..O...                        ",
"                   ......     -                    ",
"                    .....X   ---                   ",
"                   ...$$$.    --                   ",
"                   ...$$$                          ",
"                  ....$$X                          ",
"                  ...----                          ",
"                 ...------X                        ",
"                 ...------                         ",
"            ---  ...----=-                         ",
"           ------....---==##X                      ",
"          -------...****#####o                     ",
"          ----- ..%%%OO**#####                     ",
"          ---- >>%%%%XX.***...                     ",
"              >>::::%%XX......                     ",
"               ::::::&&>>:...XX                    ",
"         ==   ::444&&&&>>::::::..                  ",
"        ==== ;44444444<>>::::::..  2               ",
"       =====;444444444<<<::::::..2222              ",
"       ====;4444444444<<<OOXX:::..22222            ",
"       =11 .444444455555>11oXXX....2222            ",
"           .,,455555555552>oooX....22222           ",
"          .,,,55555555552222222XX....222    >>>    ",
"       777.,,5555955552222222222X....       >>>>   ",
"      777..,,9999955666622222222<<<. .      >>>>>  ",
"     7777.99999995666666662222222<<....     >>>>>  ",
"     7777999999666666666666222222<<<5.55     >>>>  ",
"      7..999999666666666666662222<<<<555      >>>  ",
"      ..999996666666666666666<<<22<<<<555      >   ",
"     ...9999966666666666666666<<<<<<<<5555         ",
"     ...999666666666666666886699<<<<<<5555         ",
"     ...9996666666666666668888w9<<<<<<5555         ",
"       999966666666666666688888ww8<<<<5555         ",
"      O99966666666666666666ww88www88<<5555         ",
"      O99969666666666666666wwqqqqw88<<<555         ",
"      OO*999666666666666666wwqqqqqw8<<4  5         ",
"      OO*99666666666qeee666wwqqqqqw8<<4            ",
"      OOO*rrrrrqqqqqqeeeeeeeeqqqqqqw844            ",
"      OOO*rrrrrqqqqqqeeeeeeeeqqqqqqw844            ",
"      OOOrrrrrrqqqqqqqeeeeeeeqqqqqww844            ",
"      OOOrrrrrrqqqqqqqeeeeeeeqqqqqww84             ",
"       Orrrrrrrrrrqqqqeeeeeeeqqqqwww0O             ",
"        Orrrrrrrrreeeeeeeeeeqqqqwww0OO             ",
"        Orrrrrrrrreeeeeeeeeeeeqqwww0OO             ",
"        OrrrrrrrrrrrrreeeeeeeewwwwwOO              "
};
