/* XPM */
static char *_4805a58fa804c13fd8c180aa22b8f86n0wHZk0QHrmIligw[] = {
/* columns rows colors chars-per-pixel */
"86 104 35 1 ",
"  c #000000",
". c #0F1D27",
"X c #101F29",
"o c #12282D",
"O c #143032",
"+ c #153535",
"@ c #0D1A25",
"# c #10252B",
"$ c #132D30",
"% c #1A483F",
"& c #1A4F3B",
"* c #19443C",
"= c #163936",
"- c #122A2F",
"; c #1A5438",
": c #1A5D34",
"> c #163B38",
", c #4AA244",
"< c #1A5836",
"1 c #1F722F",
"2 c #3C943C",
"3 c #1A6132",
"4 c #52A846",
"5 c #1A662F",
"6 c #3E953D",
"7 c #7FDA8A",
"8 c #88E299",
"9 c #72C761",
"0 c #83DE91",
"q c #A0F6BB",
"w c #9DF3B4",
"e c #A3F7BF",
"r c #A4F8C0",
"t c #8BE49B",
"y c white",
/* pixels */
"                                                                                      ",
"                                                           .                          ",
"                                                                                      ",
"                                                                                      ",
"                                                                                      ",
"                                                                                      ",
"                                                                                      ",
"                                                                                      ",
"                                                                                      ",
"                                                                                      ",
"                                                                                      ",
"                                                                                      ",
"                                                                                      ",
"                                                                                      ",
"                                                                                      ",
"                                                                                      ",
"                                                                                      ",
"                                                                                      ",
"                                                                                      ",
"                                                                                      ",
"                                                                                      ",
"                                                                  X                   ",
"                                                                                      ",
"                                                                                      ",
"                                                                                      ",
"                                                                                      ",
"                                                                                      ",
"                                                                                      ",
"                                                                                      ",
"                                                                                      ",
"                                          XX                                          ",
"                                          X                                           ",
"                                                                                      ",
"                                                                                      ",
"                                                                                      ",
"                                        o          XX                                 ",
"                                   OO  ooo         XX                                 ",
"                                  OOOO  o                                             ",
"                                  OOOO                                                ",
"                                   OOO                                                ",
"                                                                                      ",
"                              +++                                                     ",
"                              +++                                                     ",
"                              +++                                                     ",
"                                  X      X                                            ",
"                                 XXX                                                  ",
"                         o        XX                                                  ",
"                        ooo                         oo                                ",
"                         oo                       Ooooo                               ",
"                                               @ OOOooo                               ",
"                                          @@@@@@OOOOOoo                               ",
"                                        X@@@@@@@@OOO                                  ",
"                                 oo    XXX@@@@@@@@O                                   ",
"                                 oo    #X@@X@@@@@@                                    ",
"                                      $$$@XXX@@@@                                     ",
"                                     XX$$$@X@@@@                                      ",
"                                     XX$$$@@@@@@                                      ",
"                                       $$@@o@@@                                       ",
"                                       @@@@@@     %                                   ",
"                                        @@@@@X   %%%                                  ",
"                                       @@@+++@    %%                                  ",
"                                       @@@+++                                         ",
"                                      @@@@++X                                         ",
"                                      @@@%%%%                                         ",
"                                     @@@%%%%%%X                                       ",
"                                     @@@%%%%%%                                        ",
"                                %%%  @@@%%%%&%                                        ",
"                               %%%%%%@@@@%%%&&OOX                                     ",
"                              %%%%%%%@@@****OOOOO#                                    ",
"                              %%%%% @@===--**OOOOO                                    ",
"                              %%%% ;;====XX@***@@@                                    ",
"                                  ;;::::==XX@@@@@@                                    ",
"                                   ::::::>>;;:@@@XX                                   ",
"                             &&   ::,,,>>>>;;::::::@@                                 ",
"                            &&&& <,,,,,,,,1;;::::::@@  2                              ",
"                           &&&&&<,,,,,,,,,111::::::@@2222                             ",
"                           &&&&<,,,,,,,,,,111--XX:::@@22222                           ",
"                           &33 @,,,,,,,44444;33#XXX@@@@2222                           ",
"                               @55,44444444446;###X@@@@22222                          ",
"                              @55544444444446666666XX@@@@222    ;;;                   ",
"                           777@554444844446666666666X@@@@       ;;;;                  ",
"                          777@@558888844999966666666111@ @      ;;;;;                 ",
"                         7777@8888888499999999666666611@@@@     ;;;;;                 ",
"                         77778888889999999999996666661114@44     ;;;;                 ",
"                          7@@8888889999999999999966661111444      ;;;                 ",
"                          @@888889999999999999999111661111444      ;                  ",
"                         @@@8888899999999999999999111111114444                        ",
"                         @@@8889999999999999990099881111114444                        ",
"                         @@@8889999999999999990000q81111114444                        ",
"                           888899999999999999900000qq011114444                        ",
"                          o88899999999999999999qq00qqq00114444                        ",
"                          o88898999999999999999qqwwwwq00111444                        ",
"                          oo*888999999999999999qqwwwwwq011,  4                        ",
"                          oo*88999999999weee999qqwwwwwq011,                           ",
"                          ooo*rrrrrwwwwwweeeeeeeewwwwwwq0,,                           ",
"                          ooo*rrrrrwwwwwweeeeeeeewwwwwwq0,,                           ",
"                          ooorrrrrrwwwwwwweeeeeeewwwwwqq0,,                           ",
"                          ooorrrrrrwwwwwwweeeeeeewwwwwqq0,                            ",
"                           orrrrrrrrrrwwwweeeeeeewwwwqqqto                            ",
"                            orrrrrrrrreeeeeeeeeewwwwqqqtoo                            ",
"                            orrrrrrrrreeeeeeeeeeeewwqqqtoo                            ",
"                            orrrrrrrrrrrrreeeeeeeeqqqqqoo                             ",
"                            orrrrrrrrrrrrreeeeeeeqqqqqoooo                            ",
"                                                                                      "
};
