/* XPM */
static char *ddf614d12247482af940b68d218498c5XV5lgUkzSmhzXbug[] = {
/* columns rows colors chars-per-pixel */
"86 104 41 1 ",
"  c #000000",
". c #0F1F28",
"X c #10222A",
"o c #11292E",
"O c #132E31",
"+ c #0F1D27",
"@ c #0D1A25",
"# c #11262C",
"$ c #19423C",
"% c #18413B",
"& c #143333",
"* c #1A4D3C",
"= c #1A503B",
"- c #153735",
"; c #338A38",
": c #257A32",
"> c #1B5935",
", c #163936",
"< c #1A672F",
"1 c #1A5C34",
"2 c #0E1D26",
"3 c #1A483F",
"4 c #72C761",
"5 c #8BE59F",
"6 c #318737",
"7 c #1F722F",
"8 c #1A682E",
"9 c #76CD6C",
"0 c #469D41",
"q c #84DF94",
"w c #1A6033",
"e c #9BF1B4",
"r c #99F0AF",
"t c #6EC256",
"y c #90E9A2",
"u c #8EE7A2",
"i c #183E39",
"p c #96EDAC",
"a c #95EDA8",
"s c #93EBA8",
"d c white",
/* pixels */
"                                                                                      ",
"                                                                                      ",
"                                                                                      ",
"                                                                                      ",
"                                                                                      ",
"                                                                                      ",
"                                                                                      ",
"                                                                                      ",
"                                                                                      ",
"                                                                                      ",
"                                                                                      ",
"                                                                                      ",
"                                                                                      ",
"                                                                                      ",
"                                                                                      ",
"                                                                                      ",
"                                                                                      ",
"                                                                                      ",
"                                                                                      ",
"                                                                                      ",
"                                                                                      ",
"                                                                                      ",
"                                                                                      ",
"                                                                                      ",
"                                                                                      ",
"                                        .                                             ",
"                                                                                      ",
"                                                                                      ",
"                                                                                      ",
"                                                                                      ",
"                                                  .                                   ",
"                                     XX                                               ",
"                                 ooo XX                                               ",
"                                 ooo                                                  ",
"                                 ooo                                                  ",
"                                                                                      ",
"                            OOO                                                       ",
"                            OOO                                                       ",
"                            OOO                                                       ",
"                                                                                      ",
"                               ..                                                     ",
"                               ..          .                                          ",
"                                                                                      ",
"                       .                                                              ",
"                      ...                   +    XXX                                  ",
"                       .                       oooXX                                  ",
"                                               ooooX                                  ",
"                                     ..        oooo                                   ",
"                               .     ..    @@@@ oo                                    ",
"                                        @ @@@@@@                                      ",
"                                    ###@..@@@@@@                                      ",
"                                    ###@..@@@@@                                       ",
"                                 +  .##@@@@@@@@                                       ",
"                                      @@@X@@@@@                                       ",
"                                      @@@@@@@                                         ",
"                                       @@@@@@   $                                     ",
"                                      @@O@@@   $$$                                    ",
"                                 .    @OOO@     $$                                    ",
"                                      @@OO@@                                          ",
"                                      @@@@@@                                          ",
"                                     @@@@@@@                                          ",
"                                     @@%%%..                                          ",
"                                    @@%%%%%.                                          ",
"                             %%%%   @@%%%%$                                           ",
"                            %%%%%%  @@%%%$$$                                          ",
"                            %%%%%%  @@@%%%$                                           ",
"                            %%%%%%  @@%%%%%@oo                                        ",
"                            %%%%%%  @&&%%%%oooo                                       ",
"                             %%oo  *&&&&.%@@@oo                                       ",
"                                *****&&&@@@@@@@                                       ",
"                                 **====---@@@@@.                                      ",
"                                  =====---=**=@@                                      ",
"                            $$$====;;;;;---*====@  :::                                ",
"                          $$$$>==;;;;;;;,,,======@  ::::                              ",
"                         $$$$>>=;;;;;;;;<<<+===@@@  :::::                             ",
"                          $ >> =1;;;;;;;<<<+++2@@@   ::::                             ",
"                              111<<<<<<<<<333+222@@@  ::::                            ",
"                          4  11155566666666333++2@@@                                  ",
"                         44  1555555666666677777888@@            333                  ",
"                        444 @55999996600000077777888@@          33333                 ",
"                       4444@99999999990000000777778             33333                 ",
"                          @99999999999qq0000007777www 6666      33333                 ",
"                          @99999009900qqeeee0000777www6666      33333                 ",
"                          @9999900000qqrrreee00077wwwww6666      3333                 ",
"                         @@9990000000errrreee5500wtwwww66666                          ",
"                        @@999900000eeeeerrrrr555yytttwww6666                          ",
"                          99000000eeeeeerrrrre55uuyttwww6666                          ",
"                          990eee00eeeeeerrrree5555ytttww66666                         ",
"                          Xi9eeeeeeeeeeeerrree5555yuptww 666                          ",
"                         Xi9eeeeeeeeeeeeerrreee5u55a5atw  6                           ",
"                        XXeeeeeeeeeeeeeerrrreeeu5555aatt                              ",
"                        XXeeeeeeeeeeeeeeeerrrreee5a5aatt;                             ",
"                        Xteeeeeeeeeeeeeeeerrrreee5aaaaat;                             ",
"                        Xteeeeeeeeerrrppppeeeeeee55aaaat;                             ",
"                        Xeeeeeeeeeepppppppppp55ppaaaaaat                              ",
"                        Xeeeeeeeeeepppppppppp55ppaaaaaat                              ",
"                        Xeeeeeeeeeepppppppppp55ppaaaaatX                              ",
"                         eeeeeeeeeepppppppppp55yypaaaatX                              ",
"                         XeeeeeeeeeeppppppppyyyyypaaaaXX                              ",
"                          XeeeeeeeeeppppyyyyyyyyppaaaXXX                              ",
"                          XeeeeeeeeeppppyyyyyyyyppasXXXX                              ",
"                          XeeeeeeeeeeyyyyyyyyyyypaasXXXX                              ",
"                          XXXXeeeeeeeyyyyyyyyyyppasssXXX                              ",
"                                                                                      "
};
