/* XPM */
static char *e33266a5d6b2450cf38a3e7e4ccc10cbdiCZfrnBL6Uoof6l[] = {
/* columns rows colors chars-per-pixel */
"86 104 38 1 ",
"  c #000000",
". c #0F1D27",
"X c #0F1F28",
"o c #122C2F",
"O c #153434",
"+ c #0D1A25",
"@ c #12282D",
"# c #163C37",
"$ c #132D30",
"% c #143032",
"& c #163835",
"* c #0E1D26",
"= c #0F222A",
"- c #18413B",
"; c #17403A",
": c #1A5836",
"> c #1A5E33",
", c #1A672F",
"< c #1A5537",
"1 c #1A6B2D",
"2 c #19443C",
"3 c #348B39",
"4 c #1A4F3B",
"5 c #247932",
"6 c #4AA244",
"7 c #76D070",
"8 c #368C39",
"9 c #85E096",
"0 c #2A7F34",
"q c #72C761",
"w c #11272D",
"e c #7FDA8A",
"r c #94ECA8",
"t c #A0F6BB",
"y c #9CF2B3",
"u c #90E9A2",
"i c #76CF6E",
"p c white",
/* pixels */
"                                     .                                                ",
"                                                                                      ",
"                                                                                      ",
"                                                                                      ",
"                                                                                      ",
"                                                                                      ",
"                                                                                      ",
"                                                                                      ",
"                                                                                      ",
"                                                                                      ",
"                                       .                                              ",
"                                                                                      ",
"                                                                                      ",
"                                                                                      ",
"                                                                                      ",
"                                                                                      ",
"                                                                                      ",
"                                                                                      ",
"                                X                                                     ",
"                                                                                      ",
"                                     X                                                ",
"                                                                                      ",
"                                                                                      ",
"                             XX                                                       ",
"                             X                                                        ",
"                                                                                      ",
"                                                                                      ",
"                                                                                      ",
"                                                                                      ",
"                             X                                                        ",
"                                                                                      ",
"                                                                                      ",
"                                                                                      ",
"                                                                                      ",
"                                                                                      ",
"                                           X                                          ",
"                                                                                      ",
"                                          X                                           ",
"                                                                                      ",
"                                                                                      ",
"                                                                                      ",
"                                         X                                            ",
"                                                                                      ",
"                           o      XXX  O                                              ",
"                          ooo     XXX OOO                                             ",
"                           oo     XXX  OO          ++ +                               ",
"                                             @+++++++++                               ",
"                                            @@##+++++++++                             ",
"                                           ++####+++++++                              ",
"                                           +#####+++++++                              ",
"                                       OOO +#####+++++                                ",
"                                       OOO XX####+++++                                ",
"                                   $$$+OOO XX+++++++                                  ",
"                                   $$$++ ++++++++++OO                                 ",
"                           #####   $$$++++++X++++ OOOO                                ",
"                           #####     O+++++++++++OOOOO                                ",
"                           #####    OOO++++++++++OOOOO                                ",
"                           #####     O++++++++++  OOOO                                ",
"                           #####      ++++@@@++                                       ",
"                                    %% +++@@@++                                       ",
"                               .    %% &&*===+                                        ",
"                    ##-               &&&&===                                         ",
"                   ##;;              &&&&&===                                         ",
"                   ####           XXX&&&&&**                                          ",
"                   ####           XXX+&&&&**OO   ::                                   ",
"                                  XX ++++XX*OOX  :::                                  ",
"                                   ++++++--- XXX  :                                   ",
"                                  +++++:::::-                                         ",
"                                  ++++:::::::                                         ",
"                                +++++>+::::::XXX                                      ",
"                                >>>>>>>,,-<:                                          ",
"                               >>>>>>>>,11#<<<X  OO                                   ",
"                               >>>>>>>,,,11,,<-----OO                                 ",
"                              >>>>>>>,,,,,,,,<-------OO                               ",
"                              +>++22,,,,,,,,1,-------11111                            ",
"                              +++ 2333333,11111X-----111111                           ",
"                                ++433333333111111133- 111111                          ",
"                             551144333333666111333333 1111111                         ",
"                            55511433333666666611333333 111111                         ",
"                          55575188886666666666661333333X1111                          ",
"                          5577788866999666666666##33333X 1111                         ",
"                          77777789999999966666666#33333XX  1                          ",
"                         777777799999999999006666q##w333XX                            ",
"                         777779999999999999900eeeqqqqXXXXXq                           ",
"                        77777799999999999999eeeeeeeeqqXXXqqq                          ",
"                        77777999999999999eeeeeeeeeeeeqqXXqqqq                         ",
"                        77779999999999999eeeeeeeeeeeeqqqXqqqqq                        ",
"                        7rrr9999999999999eeeeeeeeeeeeqqqqqqqqq                        ",
"                        +rrr9999999999999eeeeeeeeeeeeeqqqqqqqq                        ",
"                        rrr99999999999999eeeeeeeeeeeeeeqq qqqq                        ",
"                        rrr9999999tt99999eeeeeeeeeeeeeeqq qqqqq                       ",
"                        rrr99999tttt99999eeeeeeeeeeeeeeqqq qqq                        ",
"                        rrr,9999tttt9999eeeeeeeeeeeeeeqqqq  qq                        ",
"                        rrr,9999tttt999yttteeeeeeeeeeeqqqq                            ",
"                         +,,utttttyyyyyytttttteeeeeetqqqqq                            ",
"                         +,,utttttyyyyyytttttteeeeettqqqqq                            ",
"                         O,,utttttyyyyyyyttttteeeeettttqqq                            ",
"                         O,,utttyyyyyyyyyttttteeeetttttqq                             ",
"                          Outtttyyyyyyyyytttteeeeetttttq9                             ",
"                          OOuttyyyyyyyyyyyyyyeeeetttttq9                              ",
"                          OOuttyyyyyyyyyyyyyyetttttttt99                              ",
"                           Outttyyyyyyyyyyyytttttttttt&&                              ",
"                           Ouuutyyyyyyyyyyyyttttttttti&                               ",
"                                                                                      "
};
