/* XPM */
static char *a0e4403d0f9d4c7e85fd84c5c55a5bcd8E3K8X0n6aHgw4cd[] = {
/* columns rows colors chars-per-pixel */
"86 104 38 1 ",
"  c #000000",
". c #0F1F28",
"X c #102129",
"o c #12272D",
"O c #0F1D27",
"+ c #0D1A25",
"@ c #173D38",
"# c #163B38",
"$ c #122C2F",
"% c #19443C",
"& c #19433B",
"* c #143032",
"= c #1A483F",
"- c #153634",
"; c #1A6B2D",
": c #1F722F",
"> c #17403A",
", c #1B503B",
"< c #1A5E33",
"1 c #7FDA8A",
"2 c #5BAF4B",
"3 c #5FB34D",
"4 c #1A6232",
"5 c #90E8A1",
"6 c #76CC6A",
"7 c #76CF6E",
"8 c #499F42",
"9 c #92EAA7",
"0 c #94ECA8",
"q c #8CE6A0",
"w c #88E299",
"e c #9FF4B9",
"r c #79D579",
"t c #A4F8C0",
"y c #A0F5BA",
"u c #3C943C",
"i c #A1F7BC",
"p c white",
/* pixels */
"                                                                                      ",
"                                                                                      ",
"                                                                                      ",
"                                                                                      ",
"                                                                                      ",
"                                                                                      ",
"                                                                                      ",
"                                                                                      ",
"                                                                                      ",
"                                                                                      ",
"                                                                                      ",
"                                                                  .                   ",
"                                                                                      ",
"                                                                                      ",
"                                                                                      ",
"                                                                                      ",
"                                                                                      ",
"                                                                                      ",
"                                                                                      ",
"                                                                                      ",
"                                                                                      ",
"                                                                                      ",
"                                                                                      ",
"                                                                                      ",
"                                                     .                                ",
"                                                                                      ",
"                                        ..                                            ",
"                                        ..                                            ",
"                                    XXX                                               ",
"                                    XXX                                               ",
"                                    XX                                                ",
"                               oo                                                     ",
"                              ooo                                                     ",
"                              ooo                                                     ",
"                                                                                      ",
"                                   ..     O                                           ",
"                                   ..                                                 ",
"                                                                                      ",
"                                                                                      ",
"                                                                                      ",
"                          ..                         XX                               ",
"                          ..                         XXX                              ",
"                                                  XXX X                               ",
"                                         .        XXX                                 ",
"                                        .         XXX                                 ",
"                                  .                                                   ",
"                                            .                                         ",
"                                        ..     ++++                                   ",
"                                       .... X+++++                                    ",
"                                         . +++++++                                    ",
"                                          ++++.+++                                    ",
"                                          +++++++   @                                 ",
"                                          ++++++   @@@                                ",
"                                         ++o++++    @                                 ",
"                                         +ooo++                                       ",
"                                          +o+.+                                       ",
"                                         +++++++                                      ",
"                                        +++++.+O                                      ",
"                                        ++@@@@+                                       ",
"                                         +@@@@@                                       ",
"                               #####   O++@@@##  .                                    ",
"                               #####    ++@@@##                                       ",
"                               #####    ++#@@#+ +                                     ",
"                               #####    ++#####...                                    ",
"                               #####    ++#####...                                    ",
"                                       $$$#####...+                                   ",
"                                      $$$$+###++++                                    ",
"                                  . %%%$$$++++++++                                    ",
"                                    %%&&&++++++++++                                   ",
"                                     &&&&+***+&+++++                                  ",
"                                   ===&++-$$&&&&&&++   ;;;;                           ",
"                              ##  ===:::::$*>&&&&&+++  ;;;;                           ",
"                             ####,==:::::::<**>&&>+++  ;;;;;                          ",
"                             ###   ::::::::<++++++++++   ;;;                          ",
"                              ,   111111::<<@@@++++<++                                ",
"                                 ,111111<<<@@@@@@+<<<++                               ",
"                                 12222;;;;;;;@@@@@<<<<+                               ",
"                           333  22222222;;;;;444444+++                >>>>            ",
"                          3333  2222222::::55544444,+ +              >>>>>            ",
"                          333  22222222665555557444,,, +             >>>>>>           ",
"                          33  22222222:5555555577777,,,    ;;        >>>>>>           ",
"                             222222::::5555555577777,,,, ;;;;        >>>>>            ",
"                              2222::::5::5555557777777,,, ;;;;;        >>             ",
"                               88::999::550q555555777,8,, ;;;;;                       ",
"                               899999900000qqqqqqq77ww888: ;;;;                       ",
"                             99999999099000000qqqqwwwwww88:;;;;                       ",
"                             99999999999000000qqqqqwwwww888 ;;;                       ",
"                            899999999eeeeeerrrrrrqqqqtww888    ;                      ",
"                            899999eeeeeeeeerrrrrrtttqtttw888                          ",
"                            9999eeeeeeeeeeeeeeerrrtttttttw88                          ",
"                           8999eeeeeeeeeeeeeeeeerrttttttttt8                          ",
"                           8999eeeeeeeeeeeeeeeeerrttttttttt8                          ",
"                           X99eeeeeeeeeeeeeeeeeerrtttttttttt                          ",
"                           X99eeeeeeeeeeeeeeeeeyrrtttttttttt                          ",
"                           X99eeeeeeeeeeeeeeeeeyeeyyyyyytttt                          ",
"                           X99eeeeeeeeeeeeeeeeeeeeyyyyyytttt                          ",
"                            Xueeeeeeeeeeeeeeeeeeeeyyyyyyyttt                          ",
"                            Xueeeeeeeeeeeeeeeeeeeettyiiiitt.                          ",
"                            Xyeeeeeeeeeeeeeeeeeeeettyiiiiyt.                          ",
"                             Xyeeeeeeeeeeeeeeeeeettyyiiiytt.                          ",
"                             yyeeeeeeeeeeeeeeeeeettyyiiiytt                           ",
"                            yyyeeeeeeeeeeeeeeeeeettyyyyyytt                           ",
"                            yyyyyeeeeeeeeeeeeeeettyyyyyyyt                            ",
"                                                                                      "
};
